<mxfile host="app.diagrams.net" modified="2024-01-11T06:13:30.323Z" agent="Mozilla/5.0 (Windows NT 10.0; Win64; x64) AppleWebKit/537.36 (KHTML, like Gecko) Chrome/120.0.0.0 Safari/537.36" version="22.1.18" etag="SM7ZMkU29egYQtKIU7tX" type="github">
  <diagram name="第 1 页" id="q5iwFoBY-wAJoULyz76P">
    <mxGraphModel>
      <root>
        <mxCell id="0" />
        <mxCell id="1" parent="0" />
      </root>
    </mxGraphModel>
  </diagram>
</mxfile>
